<svg xmlns="http://www.w3.org/2000/svg" width="1728" height="1080" viewBox="0 0 1728 1080">
  <defs>
    <style>
      .ui { font-family: Inter, Arial, sans-serif; }
      .mono { font-family: "SF Mono", Menlo, Consolas, monospace; }
      .title { font-size: 15px; font-weight: 700; fill: #15171a; }
      .label { font-size: 12px; fill: #525760; }
      .tiny { font-size: 10px; fill: #707782; }
      .pill { font-size: 11px; font-weight: 700; }
      .panel { fill: #fff; stroke: #dfe3e8; }
      .soft { fill: #f7f8fa; stroke: #e4e7eb; }
      .line { stroke: #cfd6df; stroke-width: 1.5; fill: none; }
      .blue { fill: #2f6fed; }
      .green { fill: #21a55b; }
      .orange { fill: #d97706; }
      .red { fill: #dc2626; }
    </style>
  </defs>

  <rect width="1728" height="1080" fill="#f5f6f8"/>
  <rect x="0" y="0" width="1728" height="34" fill="#303030"/>
  <circle cx="14" cy="17" r="6" fill="#ff5f57"/>
  <circle cx="34" cy="17" r="6" fill="#ffbd2e"/>
  <circle cx="54" cy="17" r="6" fill="#28c840"/>
  <text class="ui" x="864" y="22" font-size="14" font-weight="700" fill="#c9c9c9" text-anchor="middle">Root Worker Prototype</text>

  <!-- Left Agent Tree remains unchanged -->
  <rect x="0" y="34" width="376" height="1046" fill="#fbfbfc" stroke="#e4e6e9"/>
  <text class="ui title" x="18" y="72">Agent Tree</text>
  <text class="ui label" x="88" y="72">1 roots</text>
  <rect x="336" y="48" width="28" height="28" rx="10" fill="#fff" stroke="#d8dde3"/>
  <text class="ui" x="350" y="68" font-size="22" fill="#202327" text-anchor="middle">+</text>

  <g class="ui">
    <text x="70" y="130" font-size="15" font-weight="700" fill="#15171a">/root</text>
    <text x="70" y="151" class="label">Root Agent</text>
    <circle cx="47" cy="142" r="4" fill="#6d8df7"/>
    <path d="M24 130 l6 6 l6 -6" stroke="#555" fill="none"/>

    <text x="88" y="196" font-size="15" font-weight="700" fill="#15171a">project_pm_manager</text>
    <text x="88" y="217" class="label">project-pm</text>
    <circle cx="65" cy="208" r="4" fill="#6d8df7"/>
    <path d="M42 196 l6 6 l6 -6" stroke="#555" fill="none"/>

    <text x="124" y="262" font-size="14" font-weight="700" fill="#15171a">typed_responseitem_threaditem_finish</text>
    <text x="124" y="283" class="label">refactor-owner</text>
    <circle cx="101" cy="274" r="4" fill="#21a55b"/>

    <rect x="64" y="318" width="300" height="58" rx="10" fill="#eef7f1" stroke="#b7e2c2"/>
    <text x="124" y="343" font-size="14" font-weight="700" fill="#15171a">dynamic_workflow_ui_design</text>
    <text x="124" y="364" class="label">ui-ue-designer</text>
    <circle cx="101" cy="355" r="5" fill="#21a55b"/>

    <text x="160" y="428" font-size="14" font-weight="700" fill="#15171a">wf_123_reviewer_1</text>
    <text x="160" y="449" class="label">ui-ue-reviewer · running</text>
    <circle cx="137" cy="440" r="5" fill="#2f6fed"/>
    <rect x="148" y="408" width="204" height="54" rx="8" fill="none" stroke="#2f6fed" stroke-width="2" stroke-dasharray="5 4"/>
    <text x="160" y="480" class="tiny">目标节点自动展开并高亮</text>
  </g>

  <!-- Center Conversation -->
  <rect x="376" y="34" width="700" height="1046" fill="#fff" stroke="#e4e6e9"/>
  <text class="ui" x="392" y="76" font-size="16" font-weight="700" fill="#15171a">/root/project_pm_manager/dynamic_workflow_ui_design</text>
  <circle cx="792" cy="68" r="7" fill="#21a55b"/>
  <text class="ui label" x="807" y="72">Worker Agent · Active</text>
  <rect x="392" y="94" width="128" height="24" rx="12" fill="#f0f0f0"/>
  <text class="ui label" x="404" y="111">cwd: Projects/my-codex</text>

  <rect x="392" y="150" width="650" height="118" rx="8" fill="#f8fafc" stroke="#cbd5e1"/>
  <rect x="408" y="168" width="104" height="24" rx="12" fill="#dbeafe"/>
  <text class="ui pill" x="425" y="185" fill="#1d4ed8">waiting_agent</text>
  <text class="ui title" x="526" y="186">Feature Dev Workflow</text>
  <text class="ui label" x="408" y="214">Review/Fix loop · waiting for reviewer-1</text>
  <text class="ui tiny mono" x="408" y="238">run wf_123 · static stages 4 · runtime nodes 5 · resumed once</text>
  <rect x="910" y="218" width="102" height="30" rx="7" fill="#111827"/>
  <text class="ui pill" x="934" y="237" fill="#fff">Workflow</text>

  <rect x="392" y="292" width="650" height="76" rx="8" fill="#fff" stroke="#e5e7eb"/>
  <text class="ui label" x="408" y="322">Agent status · owner completed implementation</text>
  <text class="ui tiny mono" x="408" y="346">/root/project_pm/wf_123_owner</text>

  <rect x="392" y="392" width="650" height="430" rx="8" fill="#fafafa" stroke="#e5e7eb"/>
  <text class="ui label" x="416" y="430">Conversation for selected agent opens here after graph node click.</text>
  <text class="ui tiny" x="416" y="456">点击流程图里的 reviewer-1 后，中间 conversation 切到该 agent thread。</text>

  <!-- Existing Thread Analysis preserved as compact panel -->
  <rect x="1076" y="34" width="310" height="1046" fill="#fbfbfc" stroke="#e4e6e9"/>
  <text class="ui tiny" x="1100" y="74" font-weight="700" fill="#999">THREAD ANALYSIS</text>
  <text class="ui title" x="1100" y="98">Thread Analysis</text>
  <text class="ui label" x="1100" y="122">保留现有 panel，不被 workflow 替换。</text>
  <rect x="1100" y="154" width="78" height="58" rx="8" class="panel"/>
  <text class="ui tiny" x="1112" y="176">Context</text>
  <text class="ui title" x="1112" y="198">16.3</text>
  <rect x="1190" y="154" width="78" height="58" rx="8" class="panel"/>
  <text class="ui tiny" x="1202" y="176">Monitors</text>
  <text class="ui title" x="1202" y="198" fill="#b45309">0</text>
  <rect x="1280" y="154" width="78" height="58" rx="8" class="panel"/>
  <text class="ui tiny" x="1292" y="176">Events</text>
  <text class="ui title" x="1292" y="198" fill="#dc2626">0</text>
  <rect x="1100" y="238" width="258" height="180" rx="10" class="panel"/>
  <text class="ui label" x="1118" y="266">Context Window Used</text>
  <text class="ui title" x="1118" y="294">16.3%</text>
  <rect x="1118" y="318" width="214" height="8" rx="4" fill="#e5e7eb"/>
  <rect x="1118" y="318" width="34" height="8" rx="4" fill="#e5a400"/>
  <text class="ui tiny" x="1118" y="352">Tools Metadata · Tool Inputs · LLM Messages</text>

  <!-- New Workflow Graph panel added to the right -->
  <rect x="1386" y="34" width="292" height="1046" fill="#fff" stroke="#cfd6df"/>
  <text class="ui tiny" x="1408" y="74" font-weight="700" fill="#667085">WORKFLOW</text>
  <text class="ui title" x="1408" y="98">Workflow Graph</text>
  <rect x="1530" y="78" width="92" height="24" rx="12" fill="#dbeafe"/>
  <text class="ui pill" x="1548" y="94" fill="#1d4ed8">waiting_agent</text>
  <text class="ui tiny mono" x="1408" y="122">wf_123 · resumed · 5 runtime nodes</text>

  <rect x="1408" y="148" width="248" height="84" rx="10" class="soft"/>
  <text class="ui label" x="1422" y="174">节点点击行为</text>
  <text class="ui tiny" x="1422" y="198">1. 定位左侧 Agent Tree</text>
  <text class="ui tiny" x="1422" y="216">2. 打开对应 conversation</text>

  <!-- Flowchart -->
  <g class="ui">
    <rect x="1408" y="260" width="98" height="48" rx="8" fill="#ecfdf5" stroke="#10b981"/>
    <text x="1424" y="280" font-size="12" font-weight="700" fill="#065f46">Research</text>
    <text x="1424" y="298" class="tiny">completed</text>
    <line x1="1506" y1="284" x2="1532" y2="284" class="line"/>
    <rect x="1532" y="260" width="98" height="48" rx="8" fill="#ecfdf5" stroke="#10b981"/>
    <text x="1548" y="280" font-size="12" font-weight="700" fill="#065f46">Implement</text>
    <text x="1548" y="298" class="tiny">completed</text>

    <line x1="1581" y1="308" x2="1581" y2="318" class="line"/>
    <path d="M1581 318 l14 14 l-14 14 l-14 -14 z" fill="#fff7ed" stroke="#d97706"/>
    <text x="1518" y="333" class="tiny" fill="#92400e">Branch observed</text>
    <line x1="1581" y1="346" x2="1581" y2="336" class="line"/>
    <rect x="1408" y="336" width="222" height="190" rx="10" fill="#eff6ff" stroke="#93c5fd"/>
    <text x="1424" y="360" font-size="12" font-weight="700" fill="#1e3a8a">Review/Fix loop</text>
    <text x="1546" y="360" class="tiny">active</text>

    <rect x="1424" y="378" width="190" height="52" rx="7" fill="#fff" stroke="#e5e7eb"/>
    <text x="1438" y="397" class="tiny">Iteration 0</text>
    <circle cx="1440" cy="416" r="4" class="green"/>
    <text x="1452" y="420" class="tiny">reviewer-0</text>
    <circle cx="1532" cy="416" r="4" class="green"/>
    <text x="1544" y="420" class="tiny">fix-0</text>

    <rect x="1424" y="446" width="190" height="60" rx="7" fill="#fff" stroke="#2f6fed" stroke-width="2"/>
    <text x="1438" y="466" class="tiny">Iteration 1</text>
    <circle cx="1440" cy="486" r="5" class="blue"/>
    <text x="1454" y="490" font-size="12" font-weight="700" fill="#15171a">reviewer-1</text>
    <text x="1548" y="490" class="tiny">running</text>

    <line x1="1581" y1="526" x2="1581" y2="538" class="line"/>
    <path d="M1538 538 h86" stroke="#2f6fed" stroke-width="1.5"/>
    <path d="M1538 538 v18 M1624 538 v18" stroke="#2f6fed" stroke-width="1.5"/>
    <text x="1466" y="550" class="tiny" fill="#1d4ed8">Parallel reviewer/test</text>
    <rect x="1500" y="558" width="48" height="22" rx="5" fill="#eff6ff" stroke="#bfdbfe"/>
    <text x="1508" y="573" class="tiny">test</text>
    <rect x="1576" y="558" width="48" height="22" rx="5" fill="#eff6ff" stroke="#bfdbfe"/>
    <text x="1584" y="573" class="tiny">review</text>
    <path d="M1538 580 v10 M1624 580 v10 M1538 590 h86 M1581 590 v18" stroke="#2f6fed" stroke-width="1.5" fill="none"/>
    <text x="1466" y="606" class="tiny" fill="#1d4ed8">Join 1/2 completed</text>
    <line x1="1581" y1="608" x2="1581" y2="626" class="line"/>
    <rect x="1470" y="626" width="98" height="48" rx="8" fill="#f3f4f6" stroke="#d1d5db"/>
    <text x="1494" y="646" font-size="12" font-weight="700" fill="#374151">Verify</text>
    <text x="1496" y="664" class="tiny">idle</text>
  </g>

  <rect x="1408" y="704" width="248" height="248" rx="10" class="panel"/>
  <text class="ui title" x="1424" y="732">Node details</text>
  <text class="ui label" x="1424" y="760">reviewer-1 · agent</text>
  <text class="ui tiny mono" x="1424" y="788">agentPath:</text>
  <text class="ui tiny mono" x="1424" y="806">/root/project_pm/wf_123_reviewer_1</text>
  <text class="ui tiny" x="1424" y="836">status source: existing thread/agent</text>
  <rect x="1424" y="864" width="92" height="28" rx="7" fill="#111827"/>
  <text class="ui pill" x="1438" y="883" fill="#fff">Open thread</text>
  <rect x="1524" y="864" width="112" height="28" rx="7" fill="#f3f4f6" stroke="#d1d5db"/>
  <text class="ui pill" x="1536" y="883" fill="#15171a">Show in Tree</text>
  <rect x="1424" y="904" width="92" height="28" rx="7" fill="#f3f4f6" stroke="#d1d5db"/>
  <text class="ui pill" x="1442" y="923" fill="#15171a">Copy path</text>

  <!-- Right rail now includes workflow icon entry -->
  <rect x="1678" y="34" width="50" height="1046" fill="#fbfbfc" stroke="#e4e6e9"/>
  <circle cx="1703" cy="86" r="16" fill="#f2f4f7"/>
  <text class="ui" x="1703" y="91" font-size="15" fill="#555" text-anchor="middle">☼</text>
  <circle cx="1703" cy="136" r="16" fill="#111827"/>
  <text class="ui" x="1703" y="141" font-size="12" fill="#fff" text-anchor="middle">WF</text>
  <circle cx="1703" cy="186" r="16" fill="#f2f4f7"/>
  <text class="ui" x="1703" y="191" font-size="13" fill="#555" text-anchor="middle">A</text>

  <!-- Cross panel interaction highlight -->
  <path d="M1424 486 C 1210 520, 640 520, 352 435" stroke="#2f6fed" stroke-width="2" fill="none" stroke-dasharray="7 6"/>
  <path d="M1516 878 C 1290 940, 830 910, 720 608" stroke="#2f6fed" stroke-width="2" fill="none" stroke-dasharray="7 6"/>
  <text class="ui tiny" x="1160" y="548" fill="#1d4ed8">graph node click -> Agent Tree selection</text>
  <text class="ui tiny" x="940" y="872" fill="#1d4ed8">Open thread -> conversation switches to target agent</text>
</svg>
